<?xml version="1.0" encoding="UTF-8"?>
<svg version="1.1" xmlns="http://www.w3.org/2000/svg" width="1052" height="1052">
<path d="M0 0 C347.16 0 694.32 0 1052 0 C1052 347.16 1052 694.32 1052 1052 C704.84 1052 357.68 1052 0 1052 C0 704.84 0 357.68 0 0 Z " fill="#EFDA4F" transform="translate(0,0)"/>
<path d="M0 0 C0.9498175 0.00087616 1.89963501 0.00175232 2.87823486 0.00265503 C44.84523141 0.13021831 82.33209833 11.69606066 112.75 41.625 C139.1875 68.25635174 139.1875 68.25635174 139.1875 79.375 C137.16235352 80.89624023 137.16235352 80.89624023 134.31640625 82.68359375 C133.27613281 83.34230469 132.23585938 84.00101563 131.1640625 84.6796875 C130.0260769 85.3906814 128.88805523 86.10161756 127.75 86.8125 C126.58935555 87.54479972 125.42920165 88.2778775 124.26953125 89.01171875 C121.96015901 90.47254731 119.64899099 91.93046244 117.33642578 93.38623047 C113.4329727 95.8515374 109.55639432 98.35595909 105.6875 100.875 C98.5175866 105.52743314 91.3233198 110.14169063 84.125 114.75 C83.06539062 115.42869141 82.00578125 116.10738281 80.9140625 116.80664062 C78.9135376 118.08651901 76.91087651 119.36306657 74.90576172 120.63574219 C73.18236606 121.73844298 71.46899298 122.85710065 69.77001953 123.99707031 C67.95626251 125.1974176 66.07723207 126.29821737 64.1875 127.375 C60.18254722 126.04001574 59.22813639 123.51780791 57.1875 120.0625 C47.72659803 104.77225257 35.75866788 93.60528614 18.1875 88.375 C11.81352012 87.12566811 5.41065804 87.12022733 -1.0625 87.0625 C-2.13113281 87.03349609 -3.19976563 87.00449219 -4.30078125 86.97460938 C-16.61193236 86.87737671 -27.0322383 90.98080302 -36.0078125 99.4453125 C-45.05018864 109.02155586 -47.25146825 118.52565571 -47.0234375 131.453125 C-46.37404104 143.52708883 -41.96458681 154.31062042 -33.00390625 162.61328125 C-15.38507813 176.77743719 6.51826479 185.07315205 27.13769531 193.81567383 C39.59963017 199.09985953 51.95900928 204.56719653 64.1875 210.375 C65.50210205 210.99834229 65.50210205 210.99834229 66.84326172 211.63427734 C91.43552893 223.38305093 114.08229545 237.75343857 133.1875 257.375 C133.67089844 257.80167969 134.15429688 258.22835938 134.65234375 258.66796875 C155.41431295 277.67127703 164.79949919 307.26401875 168.1875 334.375 C168.28826507 337.01182705 168.35120892 339.62161375 168.35546875 342.2578125 C168.35879715 342.99393768 168.36212555 343.73006287 168.36555481 344.48849487 C168.37058988 346.03984967 168.3729642 347.59121517 168.37280273 349.14257812 C168.37497469 351.47284624 168.39312671 353.80262876 168.41210938 356.1328125 C168.54145681 390.52091677 156.14406735 422.41655856 132 447 C125.27013243 453.66847287 118.20117525 459.33435039 110.1875 464.375 C109.58389648 464.75849609 108.98029297 465.14199219 108.35839844 465.53710938 C97.26952431 472.46547971 85.4891767 477.05721014 73.1875 481.375 C72.07117188 481.78621094 70.95484375 482.19742187 69.8046875 482.62109375 C58.99995949 486.32351388 47.4603597 487.75592972 36.1875 489.375 C34.37584351 489.64195679 34.37584351 489.64195679 32.52758789 489.91430664 C27.41602906 490.53996863 22.31597662 490.55603473 17.171875 490.578125 C16.12082581 490.58382507 15.06977661 490.58952515 13.98687744 490.59539795 C11.76469923 490.60481169 9.54250729 490.61136745 7.3203125 490.61523438 C3.98932047 490.6248504 0.65897024 490.6558718 -2.671875 490.6875 C-15.99436429 490.75326587 -28.72393965 489.88168649 -41.8125 487.375 C-42.59931152 487.22544861 -43.38612305 487.07589722 -44.19677734 486.92181396 C-81.87955224 479.65619996 -113.81381268 462.34684632 -141.8125 436.375 C-142.45445312 435.79878906 -143.09640625 435.22257812 -143.7578125 434.62890625 C-154.69064042 424.35936706 -163.35265132 411.29685091 -170.8125 398.375 C-171.49119141 397.24384766 -171.49119141 397.24384766 -172.18359375 396.08984375 C-174.8125 391.65981834 -174.8125 391.65981834 -174.8125 389.375 C-174.18085937 389.02421387 -173.54921875 388.67342773 -172.8984375 388.31201172 C-159.17556879 380.68187921 -145.53733589 372.93027298 -131.9921875 364.98828125 C-127.54914144 362.38460723 -123.09524388 359.80070387 -118.6328125 357.23046875 C-118.03534714 356.88633438 -117.43788177 356.54220001 -116.8223114 356.18763733 C-113.91574305 354.51419452 -111.00817295 352.84251816 -108.09985352 351.17211914 C-107.06014404 350.57391357 -106.02043457 349.97570801 -104.94921875 349.359375 C-104.02842529 348.83053711 -103.10763184 348.30169922 -102.15893555 347.75683594 C-100.34187233 346.68675189 -98.56708054 345.54472036 -96.8125 344.375 C-94.85546875 344.4140625 -94.85546875 344.4140625 -92.8125 345.375 C-90.98828125 347.7109375 -90.98828125 347.7109375 -89.125 350.75 C-85.12145207 357.02846115 -80.60397714 362.67386273 -75.8125 368.375 C-75.13445312 369.23867188 -74.45640625 370.10234375 -73.7578125 370.9921875 C-60.08711334 387.73742141 -36.50392688 399.57941074 -15.20703125 401.953125 C8.75623867 404.07548305 33.12073495 403.10625619 53.09375 388.20703125 C60.87322915 381.56015274 67.24183908 373.29652429 68.49145508 362.82885742 C68.62525014 360.0463736 68.64607304 357.2854733 68.625 354.5 C68.64498047 353.57058594 68.66496094 352.64117188 68.68554688 351.68359375 C68.67755467 340.22276783 63.83110191 330.46331351 56.10546875 322.12890625 C37.25431992 304.09057644 9.77120167 294.98809659 -13.8125 284.875 C-70.05064539 260.7389423 -70.05064539 260.7389423 -93.8125 241.375 C-94.37517578 240.91770508 -94.93785156 240.46041016 -95.51757812 239.98925781 C-122.56255955 217.86021962 -140.93151077 187.34102286 -144.6184082 152.1953125 C-145.01501037 146.43235869 -144.99842954 140.65790283 -144.99780273 134.88378906 C-144.99998182 132.6436846 -145.01817203 130.40407983 -145.03710938 128.1640625 C-145.07180953 119.38195171 -144.49321619 111.02675575 -142.8125 102.375 C-142.67706787 101.64394043 -142.54163574 100.91288086 -142.40209961 100.15966797 C-136.33219864 69.36010599 -116.58426941 41.90008204 -90.8125 24.375 C-73.62565411 13.27582704 -54.90078747 6.07042767 -34.8125 2.375 C-33.31771118 2.0968042 -33.31771118 2.0968042 -31.79272461 1.81298828 C-21.21209606 0.06655751 -10.70088875 -0.02408276 0 0 Z " fill="#323330" transform="translate(799.8125,477.625)"/>
<path d="M0 0 C32.34 0 64.68 0 98 0 C98.06623821 44.96079903 98.12159142 89.92155173 98.15319599 134.88238565 C98.15694774 140.20031773 98.16083074 145.51824971 98.16479492 150.83618164 C98.16558185 151.89480736 98.16636878 152.95343308 98.16717956 154.04413836 C98.1802043 171.14551207 98.20384184 188.24685528 98.23145839 205.34821094 C98.25959444 222.91888291 98.27619353 240.489539 98.28226548 258.06023258 C98.28636498 268.8868254 98.29927397 279.71333196 98.3237494 290.53989821 C98.33970802 297.98191288 98.34437766 305.42388349 98.34050413 312.86591399 C98.3385982 317.14821082 98.3413478 321.4303578 98.35761642 325.71262741 C98.43780072 347.92558991 98.27146478 370.12350227 91.9375 391.625 C91.64077393 392.65149658 91.34404785 393.67799316 91.03833008 394.7355957 C86.13067895 410.92098671 78.73184169 425.90162849 68 439 C66.75669922 440.53333984 66.75669922 440.53333984 65.48828125 442.09765625 C42.61329311 468.59708197 6.52519525 482.58089772 -27.89126587 485.22186279 C-33.59736443 485.48445513 -39.29616407 485.48673584 -45.00683594 485.41162109 C-47.89553902 485.37473776 -50.78295863 485.37060674 -53.671875 485.37109375 C-68.48539655 485.31660937 -82.80957056 484.27091339 -97.1875 480.4375 C-98.63588257 480.05223145 -98.63588257 480.05223145 -100.11352539 479.65917969 C-120.84364477 473.88157327 -139.72278255 464.10692179 -156 450 C-156.80566406 449.31550781 -157.61132812 448.63101562 -158.44140625 447.92578125 C-174.75899729 433.70215338 -187.24028327 416.28979306 -197 397 C-197 396.34 -197 395.68 -197 395 C-194.82641602 393.45043945 -194.82641602 393.45043945 -191.75390625 391.61328125 C-190.92406975 391.11297897 -190.92406975 391.11297897 -190.07746887 390.60256958 C-188.24319583 389.49897101 -186.4029051 388.40583656 -184.5625 387.3125 C-183.27970244 386.54307931 -181.99731747 385.77297033 -180.71533203 385.00219727 C-177.43750749 383.03364346 -174.15485069 381.07331682 -170.87054443 379.11560059 C-167.04491124 376.83397682 -163.22483308 374.54307378 -159.40429688 372.25292969 C-157.38687145 371.04390523 -155.36864307 369.8362196 -153.34960938 368.62988281 C-147.78340261 365.29764693 -142.24369105 361.92673343 -136.73046875 358.5078125 C-136.12869812 358.1350972 -135.52692749 357.7623819 -134.90692139 357.37837219 C-131.9834035 355.56685587 -129.06319826 353.75033052 -126.14794922 351.92553711 C-125.11041504 351.28108643 -124.07288086 350.63663574 -123.00390625 349.97265625 C-122.08424072 349.39781494 -121.1645752 348.82297363 -120.21704102 348.23071289 C-118 347 -118 347 -116 347 C-114.39728504 349.55707264 -112.90375746 352.1159613 -111.4375 354.75 C-107.11678842 362.30573013 -102.44871375 369.19704284 -97 376 C-96.23623047 377.01126953 -96.23623047 377.01126953 -95.45703125 378.04296875 C-88.46134986 386.91984178 -77.06993014 393.71847602 -66 396 C-48.48992891 397.27696271 -30.82340362 398.03530227 -16.375 386.75 C-2.85157495 373.01852225 -0.85400878 353.19810574 -0.84178162 334.90882874 C-0.8372119 333.46323064 -0.83221128 332.01763385 -0.82681805 330.57203859 C-0.81327415 326.60870764 -0.80582948 322.64538523 -0.79939139 318.68203723 C-0.79137093 314.4046732 -0.77767884 310.12732686 -0.76467896 305.84997559 C-0.74293953 298.44216022 -0.72478579 291.03434304 -0.70907402 283.62651253 C-0.6863523 272.91606006 -0.65821267 262.2056272 -0.62875474 251.49519139 C-0.58110705 234.1178153 -0.53783522 216.74043117 -0.49731445 199.36303711 C-0.45794516 182.48347346 -0.4165155 165.60391695 -0.37231445 148.72436523 C-0.36959018 147.68374284 -0.36686591 146.64312045 -0.36405908 145.57096405 C-0.35037937 140.35041753 -0.33665914 135.12987112 -0.32291877 129.90932477 C-0.20899834 86.6062305 -0.10298519 43.30312192 0 0 Z " fill="#323330" transform="translate(473,483)"/>
</svg>
