<?xml version="1.0" encoding="UTF-8"?>
<svg version="1.1" xmlns="http://www.w3.org/2000/svg" width="1200" height="1200">
<path d="M0 0 C87.53889467 -0.06145852 175.07779454 -0.12187787 293.00280762 -0.16937256 C294.46330946 -0.16993036 295.9238113 -0.17048817 297.38431314 -0.17104598 C328.04345588 -0.18273777 358.70259886 -0.19360452 389.36174222 -0.20351871 C404.76380487 -0.20850013 420.16586745 -0.21364002 435.56793 -0.21892977 C437.89121224 -0.21972676 440.21449449 -0.22051924 442.53777673 -0.22131152 C478.29528947 -0.23354539 514.05279676 -0.24916916 549.81030273 -0.2746582 C550.57859286 -0.2752058 551.34688299 -0.27575339 552.13845464 -0.27631758 C564.52485286 -0.28516661 576.91125086 -0.29430122 589.29764884 -0.30347376 C624.9925569 -0.32990267 660.68746075 -0.35420515 696.38237762 -0.36455917 C697.11707258 -0.36477331 697.85176753 -0.36498745 698.60872596 -0.36520808 C714.74060613 -0.36987213 730.87248634 -0.37345109 747.00436697 -0.37600393 C753.49619238 -0.37705036 759.98801776 -0.37825284 766.47984314 -0.37950897 C767.19032635 -0.37964268 767.90080956 -0.37977639 768.63282256 -0.37991415 C791.49006766 -0.38429328 814.34728152 -0.40135489 837.20451403 -0.42512883 C860.88919014 -0.44970334 884.57382128 -0.46004562 908.25851232 -0.45400551 C921.90415721 -0.45096711 935.54968897 -0.45903926 949.1953134 -0.48319017 C958.32174321 -0.49823658 967.4480993 -0.49862179 976.5745343 -0.48732725 C981.76751625 -0.48131318 986.9602849 -0.48144381 992.1532436 -0.49953273 C1052.28798224 -0.69656461 1103.01819312 15.05809921 1146.875 57.625 C1175.032668 86.62476649 1192.72609857 124.24674871 1199 164 C1199.17018259 165.0757343 1199.34036518 166.1514686 1199.51570481 167.25980091 C1200.29096743 173.57772072 1200.14162824 179.93099815 1200.13422108 186.28581238 C1200.13617599 187.74772039 1200.13856559 189.20962787 1200.14134905 190.67153454 C1200.14773478 194.69344772 1200.14791181 198.71534089 1200.14707164 202.73725818 C1200.14724142 207.11134041 1200.15315077 211.48541554 1200.1583125 215.85949421 C1200.16763302 224.53732651 1200.17155963 233.21515372 1200.17383147 241.8929904 C1200.17679502 252.28691888 1200.18549341 262.68084061 1200.19424575 273.07476555 C1200.21508631 298.19963321 1200.22555986 323.32450204 1200.23437535 348.44937632 C1200.23858295 360.33850846 1200.24380483 372.2276401 1200.24905988 384.11677181 C1200.26695092 424.82424055 1200.28194584 465.53170943 1200.28938007 506.23918152 C1200.28985483 508.79469341 1200.29033072 511.3502053 1200.29080774 513.90571719 C1200.2911623 515.80665424 1200.2911623 515.80665424 1200.29152403 517.74599406 C1200.29272521 524.16660021 1200.29394066 530.58720635 1200.29516602 537.0078125 C1200.29540617 538.28199654 1200.29564632 539.55618058 1200.29589374 540.86897625 C1200.30378369 582.16531978 1200.32720881 623.46163457 1200.35972196 664.75796555 C1200.39404291 708.43032113 1200.41373337 752.1026599 1200.41702431 795.77502918 C1200.41744184 800.57223829 1200.4179214 805.36944739 1200.41844749 810.16665649 C1200.41857069 811.34784315 1200.41869388 812.52902981 1200.4188208 813.74601 C1200.42115014 832.73175746 1200.4367954 851.71747148 1200.45728934 870.70320703 C1200.47757549 889.79995305 1200.48301147 908.89665901 1200.47351871 927.99341381 C1200.46831441 939.32844976 1200.47413046 950.66335206 1200.49605338 961.99836869 C1200.50961209 969.58433093 1200.50843991 977.1702017 1200.49565142 984.75616496 C1200.48878836 989.06917049 1200.48796859 993.38192147 1200.50521151 997.69490373 C1200.72197153 1055.54744311 1182.98396188 1105.03546352 1142.375 1146.875 C1113.37523351 1175.032668 1075.75325129 1192.72609857 1036 1199 C1034.9242657 1199.17018259 1033.8485314 1199.34036518 1032.74019909 1199.51570481 C1026.42227928 1200.29096743 1020.06900185 1200.14162824 1013.71418762 1200.13422108 C1012.25227961 1200.13617599 1010.79037213 1200.13856559 1009.32846546 1200.14134905 C1005.30655228 1200.14773478 1001.28465911 1200.14791181 997.26274182 1200.14707164 C992.88865959 1200.14724142 988.51458446 1200.15315077 984.14050579 1200.1583125 C975.46267349 1200.16763302 966.78484628 1200.17155963 958.1070096 1200.17383147 C947.71308112 1200.17679502 937.31915939 1200.18549341 926.92523445 1200.19424575 C901.80036679 1200.21508631 876.67549796 1200.22555986 851.55062368 1200.23437535 C839.66149154 1200.23858295 827.7723599 1200.24380483 815.88322819 1200.24905988 C775.17575945 1200.26695092 734.46829057 1200.28194584 693.76081848 1200.28938007 C691.20530659 1200.28985483 688.6497947 1200.29033072 686.09428281 1200.29080774 C684.82699144 1200.29104411 683.55970008 1200.29128049 682.25400594 1200.29152403 C675.83339979 1200.29272521 669.41279365 1200.29394066 662.9921875 1200.29516602 C661.08091144 1200.29552624 661.08091144 1200.29552624 659.13102375 1200.29589374 C617.83468022 1200.30378369 576.53836543 1200.32720881 535.24203445 1200.35972196 C491.56967887 1200.39404291 447.8973401 1200.41373337 404.22497082 1200.41702431 C399.42776171 1200.41744184 394.63055261 1200.4179214 389.83334351 1200.41844749 C388.06156352 1200.41863228 388.06156352 1200.41863228 386.25399 1200.4188208 C367.26824254 1200.42115014 348.28252852 1200.4367954 329.29679297 1200.45728934 C310.20004695 1200.47757549 291.10334099 1200.48301147 272.00658619 1200.47351871 C260.67155024 1200.46831441 249.33664794 1200.47413046 238.00163131 1200.49605338 C230.41566907 1200.50961209 222.8297983 1200.50843991 215.24383504 1200.49565142 C210.93082951 1200.48878836 206.61807853 1200.48796859 202.30509627 1200.50521151 C144.45255689 1200.72197153 94.96453648 1182.98396188 53.125 1142.375 C22.58045313 1110.91697135 -0.12960703 1064.85132633 -0.1241985 1020.41484594 C-0.12547658 1019.69074997 -0.12675467 1018.96665399 -0.12807148 1018.22061571 C-0.13112763 1015.80070799 -0.12707687 1013.3808659 -0.12304783 1010.96096039 C-0.12378779 1009.19845622 -0.12496671 1007.43595218 -0.12654433 1005.67344856 C-0.12961457 1000.81708006 -0.12643719 995.96073247 -0.12226619 991.10436552 C-0.1188335 985.82608002 -0.12120251 980.54779666 -0.12284368 975.26951075 C-0.12491854 966.01448233 -0.12327173 956.75946035 -0.11920547 947.50443268 C-0.11317586 933.74249623 -0.11286917 919.98056384 -0.11374746 906.21862631 C-0.11506211 883.06999969 -0.11172437 859.92137655 -0.10573006 836.77275085 C-0.09980784 813.84779344 -0.09595502 790.9228372 -0.09487724 767.99787903 C-0.09484283 767.28594884 -0.09480842 766.57401865 -0.09477296 765.84051482 C-0.09445977 759.33814031 -0.09417208 752.83576579 -0.09391499 746.33339128 C-0.09327559 730.16913227 -0.09231626 714.0048733 -0.09113979 697.84061432 C-0.09108648 697.10452523 -0.09103316 696.36843614 -0.09097823 695.61004131 C-0.08835663 659.8025271 -0.08204904 623.99501366 -0.07543945 588.1875 C-0.0731478 575.76131185 -0.07087243 563.33512371 -0.06866455 550.90893555 C-0.0685276 550.13826335 -0.06839065 549.36759115 -0.06824955 548.57356524 C-0.0619056 512.74769132 -0.05817992 476.92181727 -0.05512976 441.09594294 C-0.05493169 438.7701317 -0.0547325 436.44432046 -0.05453308 434.11850923 C-0.0532133 418.70525107 -0.05193865 403.2919929 -0.05069422 387.87873474 C-0.04821771 357.21011366 -0.04547603 326.54149261 -0.04255217 295.87287158 C-0.04241293 294.4123482 -0.04227388 292.95182482 -0.04213501 291.49130145 C-0.03412978 207.31854122 -0.02096932 123.14578185 0 0 Z " fill="#663399" transform="translate(0,0)"/>
<path d="M0 0 C0.84175781 0.75925781 1.68351563 1.51851562 2.55078125 2.30078125 C3.32035156 2.98785156 4.08992187 3.67492187 4.8828125 4.3828125 C28.67265859 26.83942729 38.77188253 60.43990857 40.55078125 92.30078125 C40.55078125 96.59078125 40.55078125 100.88078125 40.55078125 105.30078125 C14.15078125 105.30078125 -12.24921875 105.30078125 -39.44921875 105.30078125 C-40.10921875 99.03078125 -40.76921875 92.76078125 -41.44921875 86.30078125 C-43.77854267 77.78035954 -46.21097822 70.02043365 -50.44921875 62.30078125 C-50.77921875 61.31078125 -51.10921875 60.32078125 -51.44921875 59.30078125 C-53.28102 58.18392929 -53.28102 58.18392929 -55.44921875 57.30078125 C-56.07957031 56.94757813 -56.70992187 56.594375 -57.359375 56.23046875 C-66.48018204 51.76110777 -77.84778169 51.86778638 -87.65234375 53.99609375 C-95.08662366 56.70983396 -100.47208852 61.0369537 -104.26171875 67.98828125 C-111.18434744 83.40479317 -110.40082625 103.82951148 -104.63671875 119.48828125 C-95.53038606 140.55077017 -71.45486278 147.96433876 -51.88183594 156.47851562 C-28.35924406 166.71326103 -6.77281001 178.03030185 11.55078125 196.30078125 C12.39898438 197.12578125 13.2471875 197.95078125 14.12109375 198.80078125 C30.0054098 215.13324415 37.52802457 235.49997442 42.55078125 257.30078125 C42.71884277 258.00283691 42.8869043 258.70489258 43.06005859 259.42822266 C51.39231024 295.64977254 46.66167466 341.22534828 27.55078125 373.30078125 C11.43996812 398.47193285 -12.94743777 415.13002342 -42.0390625 421.90380859 C-78.13967336 429.63151649 -117.00073842 426.70051337 -148.8828125 407.2421875 C-175.26236705 389.98305517 -189.25061572 362.35348935 -196.19921875 332.30078125 C-197.23735701 326.9933762 -197.99651649 321.66845572 -198.63671875 316.30078125 C-198.72083008 315.61371094 -198.80494141 314.92664063 -198.89160156 314.21875 C-199.64757141 307.16303138 -199.44921875 300.52534055 -199.44921875 293.30078125 C-171.72921875 293.30078125 -144.00921875 293.30078125 -115.44921875 293.30078125 C-114.45921875 304.19078125 -114.45921875 304.19078125 -113.44921875 315.30078125 C-110.10625122 327.90854452 -106.06683648 338.00635832 -94.7578125 345.14453125 C-85.17542494 349.94383196 -73.00219401 349.8234643 -62.68359375 347.42578125 C-54.98560325 344.48584518 -50.61834365 340.78485456 -47.0546875 333.41796875 C-39.86483595 316.22034113 -37.98062167 293.07931456 -44.19921875 275.265625 C-53.11294406 254.12338278 -70.68173028 243.44135869 -90.85473633 234.33776855 C-93.83684609 232.99050301 -96.80389155 231.61135544 -99.77255249 230.23477173 C-101.97741173 229.21302086 -104.1841112 228.19533509 -106.39111328 227.17822266 C-127.27365476 217.53463584 -146.35569749 206.8335897 -163.44921875 191.30078125 C-164.47402344 190.38232422 -164.47402344 190.38232422 -165.51953125 189.4453125 C-187.01645204 169.15337606 -194.67323307 137.79935477 -195.74188232 109.25245667 C-196.17092148 94.15372389 -195.9693948 79.05710979 -192.44921875 64.30078125 C-192.28292969 63.59002441 -192.11664062 62.87926758 -191.9453125 62.14697266 C-185.17558629 34.2845347 -168.63828696 8.75164825 -144.26171875 -6.88671875 C-102.2289744 -31.44295102 -38.29386006 -32.97372899 0 0 Z " fill="#FEFEFE" transform="translate(789.44921875,682.69921875)"/>
<path d="M0 0 C1.60328035 -0.01145431 3.20652457 -0.03180091 4.80957031 -0.06152344 C32.20584356 -0.56656287 58.74554401 7.93648687 79.42626953 26.29516602 C80.09916016 26.88555664 80.77205078 27.47594727 81.46533203 28.08422852 C109.64223482 54.46499407 115.59751015 92.71997847 117.42626953 129.29516602 C90.69626953 129.29516602 63.96626953 129.29516602 36.42626953 129.29516602 C36.09626953 124.01516602 35.76626953 118.73516602 35.42626953 113.29516602 C33.6905611 102.72069621 30.74490881 89.75834557 22.55126953 82.23266602 C15.92005994 78.12131607 10.15792205 76.77953763 2.48876953 76.92016602 C1.69825195 76.92886719 0.90773438 76.93756836 0.09326172 76.9465332 C-9.75940389 77.19457802 -17.16730681 79.78382751 -24.19873047 86.98266602 C-34.31370721 99.80584621 -32.72502245 117.90706413 -31.57373047 133.29516602 C-29.42005049 146.04652733 -22.7276811 154.44330014 -12.51123047 161.85766602 C-1.86847698 169.25584814 10.31646158 174.2212216 22.18859863 179.29217529 C42.83287003 188.13313522 62.12019575 197.6879494 79.42626953 212.29516602 C80.24869141 212.98223633 81.07111328 213.66930664 81.91845703 214.37719727 C101.5161444 231.31912326 113.13735148 253.27951151 118.42626953 278.29516602 C118.5704834 278.94936523 118.71469727 279.60356445 118.86328125 280.27758789 C127.40065582 319.03669224 124.03917094 366.04702994 102.42626953 400.29516602 C84.15231237 427.0170837 57.32204846 441.44087858 25.99389648 447.70581055 C6.0412694 451.26129655 -15.82370125 450.92507596 -35.57373047 446.29516602 C-36.29270508 446.12887695 -37.01167969 445.96258789 -37.75244141 445.79125977 C-64.36857495 439.37773361 -86.93182183 424.23404952 -101.69873047 401.04516602 C-117.20792706 374.96011568 -122.57373047 347.41532547 -122.57373047 317.29516602 C-95.18373047 317.29516602 -67.79373047 317.29516602 -39.57373047 317.29516602 C-38.58373047 324.88516602 -37.59373047 332.47516602 -36.57373047 340.29516602 C-33.31686202 352.53649913 -28.52879216 362.69825246 -17.57373047 369.54516602 C-8.56394226 374.05006012 3.21501606 373.60611906 12.88720703 371.56469727 C20.02476673 369.1692149 25.26917873 365.7491086 29.05126953 359.10766602 C37.48261143 340.63511436 38.55314489 316.29052103 31.80126953 297.17016602 C22.24588333 275.45017377 1.36464722 266.00775245 -18.76123047 256.35766602 C-22.31819457 254.6422347 -25.87361623 252.9236141 -29.42919922 251.20532227 C-30.29182373 250.78885941 -31.15444824 250.37239655 -32.04321289 249.9433136 C-37.51717309 247.29815732 -42.9831181 244.63793239 -48.42919922 241.93579102 C-49.36411446 241.47578453 -49.36411446 241.47578453 -50.31791687 241.00648499 C-77.65184102 227.36873751 -101.4469966 205.70081807 -111.58203125 176.37792969 C-114.00579298 168.85818357 -115.68703315 161.42143785 -116.82373047 153.60766602 C-116.99211426 152.45065186 -117.16049805 151.2936377 -117.33398438 150.1015625 C-121.39211606 119.76014127 -119.17840109 87.97944509 -105.57373047 60.29516602 C-105.08904297 59.29743164 -104.60435547 58.29969727 -104.10498047 57.27172852 C-95.91393152 41.39019472 -83.00190116 26.5073491 -67.57373047 17.29516602 C-66.47802734 16.64032227 -65.38232422 15.98547852 -64.25341797 15.31079102 C-44.05769779 3.71462682 -23.01083461 0.11368531 0 0 Z " fill="#FEFEFE" transform="translate(982.57373046875,658.704833984375)"/>
<path d="M0 0 C0.71720215 0.16097168 1.4344043 0.32194336 2.17333984 0.48779297 C18.30322062 4.29964447 34.26330824 11.30695894 47 22 C47.84691406 22.70898438 48.69382812 23.41796875 49.56640625 24.1484375 C75.00026207 46.28171661 83.64534099 73.34005742 88 106 C88 117.55 88 129.1 88 141 C58.96 141 29.92 141 0 141 C-0.33 132.09 -0.66 123.18 -1 114 C-3.48787694 100.98648984 -7.58306602 90.16410513 -18.77734375 82.37109375 C-19.51082031 81.91863281 -20.24429688 81.46617187 -21 81 C-21.86818359 80.46052734 -21.86818359 80.46052734 -22.75390625 79.91015625 C-31.02900789 75.89293689 -43.57311452 76.79802817 -52.125 79.625 C-59.88494876 83.01115946 -64.35047363 87.38630863 -67.87109375 95.08984375 C-72.30690918 106.52473128 -74.15868244 117.52713837 -74.13371277 129.70820618 C-74.1371111 130.95048242 -74.1371111 130.95048242 -74.14057809 132.21785516 C-74.14686126 134.96727281 -74.14609241 137.71664045 -74.14526367 140.46606445 C-74.1482587 142.44789696 -74.15166202 144.42972889 -74.15544128 146.41156006 C-74.16425009 151.77736732 -74.16661807 157.14315861 -74.16725707 162.50897241 C-74.16796929 165.86584338 -74.17010687 169.22271033 -74.17275429 172.57958031 C-74.18199708 184.30330029 -74.18609047 196.02700892 -74.18530273 207.75073242 C-74.18470209 218.65872107 -74.19525411 229.56666024 -74.2110464 240.47463638 C-74.22414401 249.85752033 -74.2294857 259.24038816 -74.22884732 268.62328118 C-74.22859301 274.21938995 -74.23140747 279.81545472 -74.24202538 285.41155434 C-74.25174389 290.67701551 -74.25175988 295.94239094 -74.24450874 301.20785522 C-74.24346759 303.13305474 -74.24579771 305.05825971 -74.2518692 306.98344994 C-74.30291222 324.29890273 -73.91031803 344.20310759 -60.92578125 357.41796875 C-50.84784861 365.69700064 -39.52896419 366.05438862 -27 365 C-23.49340991 364.2155068 -20.94291204 363.03551416 -18 361 C-16.9790625 360.35804688 -16.9790625 360.35804688 -15.9375 359.703125 C-7.90066005 353.79726534 -3.53513602 343.09281546 -1.625 333.5 C-0.68240117 323.69697217 -0.42778025 313.83894564 0 304 C29.04 304 58.08 304 88 304 C88 345.04254 84.41138722 381.56075983 54.6875 411.8125 C28.47994844 437.52440955 -8.36344931 446.70723031 -44.11743164 446.40478516 C-76.75963658 445.67626791 -108.20615053 436.08545115 -132 413 C-133.02673828 412.08347656 -133.02673828 412.08347656 -134.07421875 411.1484375 C-154.01562716 392.73495625 -162.11348509 362.22703542 -163.3658123 336.06021881 C-163.55141982 329.92442077 -163.53084927 323.79117859 -163.50170898 317.65332031 C-163.5055052 315.32757746 -163.51101584 313.0018369 -163.51808167 310.67610168 C-163.53188066 304.43867682 -163.52097869 298.2015326 -163.50437045 291.96412373 C-163.4917992 286.06179001 -163.49614883 280.15948272 -163.49950016 274.25714013 C-163.50534427 262.56347088 -163.49134155 250.86991017 -163.46655273 239.17626953 C-163.44262012 227.88488707 -163.43556154 216.59364938 -163.44604492 205.30224609 C-163.45750574 192.93632769 -163.45932255 180.57047581 -163.44494683 168.20455813 C-163.43745561 161.68397411 -163.43345924 155.16344731 -163.43945122 148.64286041 C-163.44426548 142.51284789 -163.43393728 136.38303258 -163.41249657 130.25305748 C-163.40698959 128.01999005 -163.40640638 125.78690344 -163.41144943 123.55383492 C-163.44560585 106.24342952 -162.72831273 88.72567269 -156.875 72.25 C-156.577146 71.38785889 -156.27929199 70.52571777 -155.97241211 69.63745117 C-151.4725197 57.16388315 -144.90697116 45.84986413 -136 36 C-135.28714844 35.19433594 -134.57429688 34.38867188 -133.83984375 33.55859375 C-101.16836487 -1.29461994 -44.9441405 -10.11368703 0 0 Z " fill="#FEFEFE" transform="translate(470,662)"/>
</svg>
