<?xml version="1.0" standalone="no"?>
<!DOCTYPE svg PUBLIC "-//W3C//DTD SVG 20010904//EN"
 "http://www.w3.org/TR/2001/REC-SVG-20010904/DTD/svg10.dtd">
<svg version="1.0" xmlns="http://www.w3.org/2000/svg"
 width="1200.000000pt" height="1200.000000pt" viewBox="0 0 1200.000000 1200.000000"
 preserveAspectRatio="xMidYMid meet">

<g transform="translate(0.000000,1200.000000) scale(0.100000,-0.100000)"
fill="#000000" stroke="none">
<path d="M0 6926 c0 -3394 3 -5108 10 -5177 46 -458 237 -866 555 -1184 318
-319 725 -509 1184 -555 143 -14 8359 -14 8502 0 459 46 866 236 1184 555 318
318 509 726 555 1184 14 143 14 8359 0 8502 -46 459 -236 866 -555 1184 -318
318 -726 509 -1184 555 -69 7 -1783 10 -5177 10 l-5074 0 0 -5074z m7275
-1516 c302 -29 516 -126 695 -317 177 -188 273 -412 314 -731 9 -68 16 -150
16 -183 l0 -59 -404 0 -403 0 -6 103 c-8 157 -61 303 -131 365 -91 80 -302 84
-414 8 -92 -63 -142 -191 -142 -363 1 -169 39 -286 123 -371 79 -80 150 -121
408 -235 344 -153 487 -239 643 -387 190 -181 293 -378 348 -670 30 -158 32
-532 4 -685 -22 -120 -72 -278 -116 -366 -129 -256 -354 -444 -636 -532 -301
-95 -701 -85 -981 23 -167 64 -329 187 -437 331 -140 186 -235 484 -253 792
l-6 107 420 0 420 0 6 -97 c15 -224 90 -368 226 -432 50 -23 68 -26 166 -26
101 0 115 2 168 28 107 53 156 150 178 354 21 200 -12 368 -96 482 -73 99
-176 173 -380 271 -343 166 -392 190 -476 241 -164 100 -318 237 -399 354 -77
113 -142 292 -172 480 -19 122 -16 458 6 575 66 359 263 646 549 800 145 78
301 123 484 139 130 12 157 12 278 1z m2698 -1 c465 -40 781 -284 935 -720 47
-134 92 -394 92 -535 l0 -34 -404 0 -403 0 -6 98 c-5 102 -47 255 -87 319 -49
80 -150 119 -286 111 -216 -13 -314 -145 -314 -421 0 -197 47 -311 168 -408
85 -69 108 -81 332 -179 237 -104 362 -169 481 -248 310 -209 473 -459 540
-828 31 -171 32 -518 1 -684 -50 -271 -143 -460 -307 -626 -159 -160 -345
-256 -597 -306 -147 -29 -442 -32 -584 -5 -321 59 -549 201 -708 440 -133 199
-208 448 -223 740 l-6 117 416 0 416 0 5 -42 c3 -24 8 -72 11 -107 8 -86 47
-206 86 -265 69 -104 183 -153 331 -143 136 9 209 51 258 151 43 88 62 189 62
341 1 203 -40 321 -153 435 -85 87 -155 129 -429 260 -382 182 -525 273 -673
428 -91 96 -138 167 -185 277 -111 264 -136 695 -56 1002 124 481 494 787
1004 832 136 12 152 12 283 0z m-5303 -28 c347 -71 610 -256 761 -535 104
-193 157 -467 159 -813 l0 -63 -444 0 -443 0 -6 143 c-8 197 -35 287 -115 384
-43 54 -138 102 -215 110 -116 12 -250 -35 -307 -108 -38 -47 -86 -191 -100
-299 -8 -59 -10 -392 -8 -1090 4 -973 5 -1007 24 -1081 59 -220 180 -317 382
-307 142 7 222 61 282 189 40 85 60 195 60 325 l0 104 446 0 447 0 -7 -158
c-15 -346 -71 -548 -210 -756 -60 -90 -200 -231 -286 -287 -129 -85 -298 -153
-473 -191 -85 -18 -135 -22 -302 -22 -283 -1 -453 33 -650 129 -325 158 -503
401 -577 790 -20 107 -21 144 -25 1195 -6 1316 -1 1404 81 1639 136 390 484
646 974 716 135 20 425 12 552 -14z"/>
</g>
</svg>
